<?xml version="1.0" encoding="UTF-8" standalone="no"?>

<!-- Created with Inkscape (http://www.inkscape.org/) -->

<svg id="svg3368" xmlns:rdf="http://www.w3.org/1999/02/22-rdf-syntax-ns#" xmlns="http://www.w3.org/2000/svg" height="300" width="300" viewBox="0 0 743.57 743.57" version="1.1" xmlns:cc="http://creativecommons.org/ns#" xmlns:dc="http://purl.org/dc/elements/1.1/">

 <metadata id="metadata3373">

  <rdf:RDF>

   <cc:Work rdf:about="">

    <dc:format>image/svg+xml</dc:format>

    <dc:type rdf:resource="http://purl.org/dc/dcmitype/StillImage"/>

    <dc:title/>

   </cc:Work>

  </rdf:RDF>

 </metadata>

 <g id="layer1" transform="translate(-1.0701516,-90.575216)" opacity="0.8">

  <g id="g3401" fill-rule="nonzero">

   <path id="path72" d="m662.26,577.26c-1.4376-0.88981-4.1045-0.56264-3.817-3.1825,2.5232-0.19076,3.0263,1.6408,3.817,3.1825zm1.9-470.3c-1.616-0.0744-2.4662-0.92202-2.5455-2.5405,0.9493,0.751,2.8429,0.54775,2.5455,2.5405zm0.637,35.642c1.393-0.11639,2.025,0.51802,1.911,1.9085h-1.911v-1.9085zm5.0934,447.39h-1.911c-0.93442-1.8564,2.8454-1.8564,1.911,0zm-1.2715-110.1zm3.1775,100.55c-1.8143,0.8328-3.0784-3.0288-0.63452-2.543,2.8231-3.4328,3.4179,5.3934,0.63452,2.543zm3.185-1.9085c1.8589-0.9369,1.8589,2.8429,0,1.9085v-1.9085zm0-238.65h1.2715v1.2764h-1.2715v-1.2764zm14.636-22.907c-0.10155-0.74358,0.14138-1.1352,0.63947-1.2765-0.65435-2.1365,1.9754-0.98399,3.1825-1.274,0.32965,1.0063,2.4488,3.413,0.63451,4.4564-0.12889,1.9928-1.6408,2.6-2.548,3.817-1.0881,0.0321-1.6458-0.47341-1.9085-1.269-1.046-0.0892-1.046-4.3722,0-4.454zm4.4564-123.46v1.269h-1.274v-1.269h1.274zm-1.274-35.639c2.3001-0.60228,0.88733,2.5034,1.274,3.817-1.1154-0.58246-1.4054-1.9928-1.274-3.817zm5.7304,586.76c0.8328,0.22307,0.99886,1.1203,1.9085,1.2715-0.26025,1.5838-2.4686,0.0397-1.9085-1.2715zm0.63204-204.28c0.91458,0.99142,3.3188,0.50066,3.185,2.543-1.8639-0.0445-3.589-0.23298-3.185-2.543zm0-308.66c1.9333-0.23299,1.3235,2.0721,1.9134,3.18-0.51306,0.33956-1.0336,0.66674-1.9134,0.63451v-3.8145zm3.8195,3.8145c-0.2776,0.78819-0.81546,1.3062-1.906,1.274,0.27265-0.78075,0.81297-1.3062,1.906-1.274zm0.63699,7.6414c-0.60973-3.0833,4.4614-0.10155,1.911,0.63202,0.20077,1.4797-0.10155,2.4488-0.63699,3.185-0.56759-0.28255-1.1377-0.55767-1.274-1.2764-1.0336,0.45605-1.0336-2.9966,0-2.5405zm3.18-66.822c1.5491,0.39657,0.3371,3.2122-1.269,2.543,0.32966-0.94185,0.94186-1.6036,1.269-2.543zm1.2765-2.5504h1.2715v1.2764h-1.2715v-1.2764zm5.7255,70.646c0.86254,0.19333,0.52794,1.5888,0.63451,2.543-1.1377-0.0842-1.3409,0.78074-2.543,0.63203,0.57255-1.1203,1.5367-1.8564,1.9085-3.175zm1.274-77.011c-0.67913,0.59485-0.19829,2.3497-1.9085,1.9135-0.11658-1.388,0.51802-2.0275,1.9085-1.9135zm3.1825-4.4515c-0.67912,0.59486-0.19828,2.3447-1.911,1.9085-0.11659-1.388,0.52298-2.0225,1.911-1.9085zm3.817-6.9994c1.849,0.88484-0.18103,3.1378-0.63698,3.817-2.2034-1.2418,0.78074-2.5405,0.63698-3.817zm2.5455,170.56c-2.2059,0.55024-2.1836-0.97903-1.2715-1.9135,0.78323,0.28008,1.3087,0.81794,1.2715,1.9135zm0-230.38h1.2765v1.274h-1.2765v-1.274zm6.365,27.363c0.0792,1.1401-0.78075,1.3384-0.637,2.543h-1.9085c0.0767-1.621,0.92698-2.4662,2.5455-2.543zm2.548,2.543c-0.46845,1.1327-1.16,0.0942-1.9135,0,0.46845-1.1352,1.16-0.0892,1.9135,0zm1.906,112.01c0.11659,0.53785-0.24787,0.59982-0.63699,0.63452-0.23051,1.0806,0.4957,1.2021,1.2715,1.2715-0.80801,1.5268-2.0746,2.5876-4.454,2.543-0.87493-1.0236-2.2505-1.5615-1.906-3.8145,1.0881,0.0297,1.6482-0.47588,1.906-1.2765v-1.2666h-1.906v-2.5504-0.63451c-0.5428,0.11639-0.60228-0.25034-0.63947-0.63947-0.96664-2.7537,2.9098-3.4353,3.1825-1.2666v0.63452c0.78075,0.28007,1.3062,0.81296,1.2765,1.906-0.35693,2.486,4.1912,1.9853,1.906,4.4589zm0.63451-85.282h1.2765v1.2765h-1.2765v-1.2765zm0.63946-49.638c0.85511,0.4164,1.1823,1.3583,1.2715,2.5455-1.1203-0.15605-1.45-1.098-1.2715-2.5455zm1.906,246.92c-1.673,0.19074-2.0845-0.87741-1.906-2.5405h1.906v2.5405zm0.63699,4.4564c0.009-1.4971,1.735,0.23298,1.2765,1.2765-0.51553,0.12154-0.63452,0.63451-1.2765,0.63451h-1.2715c-0.34948-1.4103,1.217-0.90469,1.2715-1.911zm1.911-87.186h1.2715v1.274h-1.2715v-1.274zm2.5455-36.271c-0.83776-0.22555-0.99887-1.1228-1.911-1.2765,0.26024-1.5863,2.4711-0.0372,1.911,1.2765zm0,249.47v1.269h-1.274v-1.269h1.274zm-4.4565-122.19v-1.2715h1.2765v1.2715h-1.2765zm3.1825,334.74h-1.2715c-2.1638-0.27512,1.0906-4.5209,0.63452-1.274h0.63698v1.274zm-3.1825-112.64h-1.2715v-1.274h1.2715v1.274zm-3.817-223.38h-1.274v-1.269h1.274v1.269zm-4.454-61.734v-1.906c1.854-0.93442,1.854,2.8429,0,1.906zm-8.9104,63.005c-0.0892-2.5529,1.6334-1.683,3.185-1.2715,0.0942,1.8564-2.5827,1.9333-3.185,1.2715zm0,62.371h-1.2715v-1.2715h1.2715v1.2715zm-19.727,28.635h-2.548v-1.9085c0.28008-0.78075,0.81298-1.3062,1.911-1.2666,0.12156,0.51059,0.63948,0.63451,0.637,1.2666v1.9085zm-10.84-103.07c-1.854,0.93441-1.854-2.8429,0-1.906v1.906zm-0.63451,28h-1.274v-1.269h1.274v1.269zm-24.183,175.02h-1.2715v-1.2765h1.2715v1.2765zm-9.5474,4.4465c0.78323,0.28504,1.3062,0.8204,1.2765,1.9159-2.2109,0.55272-2.1861-0.97903-1.2765-1.9159zm-3.1825,136.19h-1.2715v-1.274h1.2715v1.274zm-1.9085-138.1h-1.269v-1.269h1.269v1.269zm-2.5455,10.821c0.12135-0.51802,0.64194-0.63452,0.63699-1.274h1.274c0.29496,1.3583-0.9121,1.212-1.911,1.274zm-2.5455-457.57c0.54033,0.11659,0.59981-0.25034,0.63699-0.63451,0.74606,0.10155,0.53786,1.16,0.63204,1.906-1.0807,0.23298-1.1947-0.49819-1.269-1.2715zm0.63699,684.12h-1.274v-1.2715h1.274v1.2715zm-3.817-668.85c0.78075,0.27511,1.3062,0.81296,1.2715,1.9085-0.78323-0.27511-1.3062-0.81296-1.2715-1.9085zm-0.637,301.65v-1.269c1.3558-0.2999,1.2145,0.90963,1.2715,1.911-0.51307-0.12394-0.63451-0.64195-1.2715-0.64195zm-1.2715-267.29v-1.911c1.854-0.93441,1.854,2.8454,0,1.911zm-5.7329,6.3674c-1.5788-0.25777-0.48331-2.9148,1.2765-1.911v0.63452c1.0831-0.23795,1.1996,0.50066,1.274,1.2764,2.5653,1.4004-3.1255,2.0423-2.5504,0zm2.5504,390.11h-2.5504v-2.548h3.185c0.0819,1.1476-0.77826,1.3459-0.63451,2.548zm-2.5504,75.091v-1.274h1.2765v1.274h-1.2765zm0.64195,5.7255c0.51059,0.12135,0.63451,0.63947,1.2715,0.63947,0.4759,2.3125-2.1935,1.2071-1.2715-0.63947zm1.2715,64.279h-1.2715v-1.274h1.2715v1.274zm-9.54-599.49c1.6656-0.18103,2.7363,0.23051,2.5455,1.9085-1.6631,0.18104-2.7363-0.2305-2.5455-1.9085zm-0.63453,589.94h-1.2715v-1.274h1.2715v1.274zm-1.2715,121.55h-1.2765v-1.269h1.2765v1.269zm-2.56-196.64h1.906v1.9035c-1.0236,0.17847-1.093-0.59485-1.906-0.63451v-1.269zm0,18.45c-1.388,0.1166-2.025-0.51802-1.911-1.9085h1.911v1.9085zm-2.5455-226.55h1.2715v1.2665h-1.2715v-1.2665zm-2.543,148.28c-0.74108-1.1674-4.1541,0.33957-3.1825-2.5405,2.1514-0.24539,2.7116,1.1005,3.817,1.906,3.1577,0.46845-0.57007,1.8366-0.63451,0.63452zm-1.9134,170.55c-0.92946,0.91955-2.0126,0.48827-1.9085-1.2715h1.9085v1.2715zm-5.086-86.549c-0.10649-0.73861,0.13385-1.1302,0.63203-1.269-0.0718-2.4092,1.2442-3.4278,3.185-3.8244,0.26768,1.331-0.43623,1.6904-0.63947,2.548h-0.63452c-0.0793,1.621-0.92697,2.4662-2.543,2.5455zm-0.63948-306.74c-1.621-0.0619-1.5045-2.367-0.63698-3.18,1.9952,0.44118,0.83032,1.6953,0.63698,3.18zm-1.9085,288.29c0.51554,0.12154,0.63451,0.63204,1.2715,0.63204,0.47588,2.3199-2.1935,1.2046-1.2715-0.63204zm-1.274,14.631c-1.3583,0.30239-1.2145-0.90964-1.2715-1.9085,1.4524-0.17845,2.3918,0.15368,2.5455,1.2765h0.63451c0.19571,0.76588-1.8391,2.1886-1.9085,0.63204zm1.274,164.19h-1.274v-1.269h1.274v1.269zm-3.1825-27.366c-0.0767,0.90964-2.7165,3.4006-2.5455,0.63947h0.63699c0.28007-1.844,1.3434-2.9024,3.18-3.1825-0.32964,0.94184-0.94185,1.6011-1.2715,2.543zm-4.454,10.182c-1.844-0.35195,0.97408-0.99143,0.63451-1.9085,2.1093,0.61964-0.71134,1.2616-0.63451,1.9085zm-1.911-12.725c-0.29496-1.3583,0.90962-1.217,1.911-1.274-0.12393,0.5205-0.64194,0.63204-0.63699,1.274h-1.274zm2.5455-365.29c0.73367,0.20573,2.1935,2.781,0.63699,3.185v1.9085c-1.1129-0.58246-2.2109-1.1848-1.9085-3.1825,0.10156-0.73613-0.14137-1.1327-0.63699-1.2765-2.5529-0.7287,2.5182-3.7079,1.9085-0.63452zm-3.817,400.93h-1.2765v-1.274h1.2765v1.274zm-2.5455-164.83c-1.0831,0.23794-1.2021-0.49323-1.274-1.2715,0.19075-2.0968,3.3708,1.0806,1.274,1.2715zm-2.548,8.2759v-1.9085h1.911c0.11401,1.388-0.52297,2.0225-1.911,1.9085zm0,130.46c-1.3236-0.75596-0.45854-4.6498,1.274-4.4515,0.0619,1.9729-0.77827,3.0362-1.274,4.4515zm-4.454-343.01v-2.548h1.911c0.17846,1.6656-0.23548,2.7388-1.911,2.548zm-1.2715-188.37h1.2715v1.2666h-1.2715v-1.2666zm-2.548-2.548c0.54281,0.11402,0.60477-0.25281,0.637-0.63451,1.678-0.19332,2.0894,0.87741,1.911,2.5405-1.6656,0.18104-2.7413-0.22802-2.548-1.906zm-1.9085,131.73v-0.63451-2.548c0.56758-1.7102,1.7796,1.1005,1.2765,2.548-0.20078,2.3199,0.0991,4.1367,0.63202,5.7255-1.8986-0.43622-2.1316-2.5356-1.9085-5.091zm1.2765,12.732c-1.6235-0.0842-2.4711-0.92947-2.548-2.548,1.1401,0.0817,1.3409-0.78322,2.548-0.63451v3.1825zm0,47.09h-1.2765v-1.2765h1.2765v1.2765zm-3.185,318.19c-0.11659-1.3905,0.51801-2.0225,1.9085-1.9085,0.11638,1.3905-0.5205,2.025-1.9085,1.9085zm0,47.098c-1.3558,0.29495-1.212-0.90962-1.274-1.9085,0.51555,0.12154,0.63451,0.63451,1.274,0.63451v1.274zm-1.9085-42.639h1.274v1.2715h-1.274v-1.2715zm-1.274-124.1c-0.83527,0.76835-0.99886,0.25034-1.906,0v-0.63204c0.0178-1.9308,4.0004,0.44615,1.906,0.63204zm-1.2715,5.7329c-1.5838-0.26273-0.0372-2.4736,1.2715-1.9134,0.35444,1.4128-1.212,0.90716-1.2715,1.9134zm0,3.817h-1.274v-1.2765h1.274v1.2765zm0,8.908h-1.274v-1.2765h1.274v1.2765zm-1.911-71.908h-1.2715v-1.2764h1.2715v1.2764zm0,152.09h-1.2715v-1.274h1.2715v1.274zm-4.454,61.097c-1.1079,0.1858-2.2307-2.4711,0-1.9085,0.15367-1.6458,1.0955,0.87246,2.5455,0,0.83032,1.9655-1.8069,3.6038-2.5455,1.9085zm-5.0934-221.47c1.1451-0.0744,1.3434,0.78322,2.548,0.63451-0.11401,1.8515-3.0238,1.5367-2.548-0.63451zm-1.269,216.38c-0.19333-1.4673,1.8391-0.71135,1.9085-1.9085,1.7201,0.56263-0.29493,2.5802-1.9085,1.9085zm1.269,3.817c-1.1327-0.46845-0.0892-1.16,0-1.9085,1.1352,0.46597,0.0966,1.1575,0,1.9085zm-1.269,16.547c-1.1327-0.46845-0.0916-1.1575,0-1.9159,1.1327,0.47092,0.0892,1.16,0,1.9159zm-3.1825-21.64v-1.906c1.8564-0.93689,1.8564,2.8404,0,1.906zm-1.274-49.004c1.6631-0.17845,2.7363,0.23795,2.543,1.9085-0.46597-1.0112-3.1131,0.14634-2.543-1.9085zm-8.271-194.09c2.4042-0.072,3.4179,1.2418,3.8145,3.1825-1.9234-0.41144-3.6708-0.99886-3.8145-3.1825zm0,20.998c-0.64194-1.9134,1.4177-1.1253,2.543-1.274-0.15108,1.1203-1.093,1.4524-2.543,1.274zm-3.185-155.28c-0.077-1.1401,0.77827-1.3384,0.63947-2.543,0.54281,1.1525,1.6383,1.7548,1.906,3.1825-0.56512-0.49819-1.4376-0.68409-2.5455-0.63947zm0,149.56c-2.1241-0.39657-1.2814-2.7735,1.274-1.9085v0.63452c0.23547,1.0831-0.49571,1.1971-1.274,1.274zm-1.9085,224.01c0.51553,0.12394,0.63452,0.63451,1.2715,0.63451,0.47589,2.32-2.1935,1.2071-1.2715-0.63451zm-1.906-461.38h-1.9135c-0.93441-1.8589,2.8479-1.8589,1.9135,0zm-1.2765,220.83h-1.2715v-1.274h1.2715v1.274zm-1.906,247.56c0.23051,1.0806-0.49819,1.1971-1.2765,1.274-0.5081-0.34205-1.0311-0.66426-1.9085-0.64195,0.2652-2.0696,2.833-1.8317,2.5455-4.449,0.51306,0.33213,1.036,0.65929,1.9085,0.63203,0.47589,1.9606-1.7449,1.2269-1.269,3.185zm-1.911,6.3649c-1.3806,0.10155-0.2875-2.2604-0.63699-3.1825,1.9581-0.47588,1.2219,1.7424,3.1825,1.2666-0.1735,1.3136-2.8156,0.15624-2.5455,1.9159zm-1.274,3.175c0.23297,1.0856-0.49819,1.2046-1.2715,1.2765v-1.2765c0.85511-1.0484,1.6259-2.1886,3.18-2.5405,0.56264,2.0423-2.0969,0.86997-1.9085,2.5405zm-3.1825-25.455c0.94681,0.75348,2.8429,0.55025,2.5455,2.548-1.9903,0.29495-2.8404-0.55024-2.5455-2.548zm-0.63451-5.7255h1.2715v1.274h-1.2715v-1.274zm-1.911,4.4564h-1.2715v-1.274h1.2715v1.274zm5.728-42.639v1.9085c-1.854,0.93442-1.854-2.8429,0-1.9085zm-0.63699-78.912c0.28007-0.78571,0.81791-1.3062,1.911-1.274-0.27759,0.78075-0.81544,1.3062-1.911,1.274zm0.63699-5.7329c1.8193-0.9592,1.9804-3.9483,1.274-5.723,2.0721,0.0495,1.3583,2.8801,1.911,4.4564,1.9977,1.9903-1.0807,2.144-0.63947,4.4515-2.025-0.51802-3.6311-1.4599-4.454-3.185h1.9085zm-0.66-490.67h1.274v1.2764h-1.274v-1.2764zm5.091,628.13c-0.11897,0.51306-0.63947,0.63451-0.63451,1.269h-1.274c-0.29743-1.3582,0.90963-1.2095,1.9085-1.269zm-1.9085-231.01h1.274c-0.11659,0.53785,0.24786,0.59485,0.63451,0.63451,0.25281,1.2368-2.8999,0.92946-1.9085-0.63451zm0-105.64h1.274c0.23298,1.0831-0.49571,1.1996-1.274,1.2765v-1.2765zm6.365-4.4565h1.2715v1.274h-1.2715v-1.274zm3.18-278.1zm-1.9085-8.9154h0.63947c0.56511,0.28502,1.1352,0.5651,1.269,1.2764,0.54032-0.11639,0.60477,0.25034,0.63699,0.63452,0.0619,1.6383,2.486,0.91458,2.548,2.548-0.33709,0.51555-0.66425,1.0311-0.637,1.9085-1.9903,0.29494-2.0349-1.3583-1.911-3.1825-0.54033,0.11659-0.59734-0.25034-0.63699-0.63451-0.51307-0.33957-1.0311-0.66674-1.9085-0.63947v-1.911zm6.365,152.74v1.269h-1.2715v-1.269h1.2715zm0-41.37c-0.5676,1.7201-2.5827-0.29495-1.9085-1.9085,2.2629-0.98647,0.38419,2.1638,1.9085,1.9085zm12.093,61.736v1.269h-1.2765v-1.269h1.2765zm0.64-219.57c-1.3285,0.27017-1.6854-0.43375-2.5455-0.63451,0.11401-1.844,3.0238-1.5367,2.5455,0.63451zm6.365,416.21c0.18103,1.0261-0.6023,1.098-0.637,1.911,0.41144,0.64443,1.4624,0.65186,1.274,1.906-2.1613,0.0397-3.4973-0.74853-4.4565-1.906,0.57999-1.3335,1.8788-1.9432,3.8195-1.911zm5.728,35v1.274h-1.274v-1.274h1.274zm-2.5455-383.11h1.2715v1.274h-1.2715v-1.274zm12.725,154.01h1.2765v1.2765h-1.2765v-1.2765zm15.912-167.37c-0.15369,1.1203-1.0955,1.4524-2.5455,1.274-0.64194-1.9134,1.4178-1.1253,2.5455-1.274zm-2.5455,466.48v-1.274h1.906v1.9085c-1.0261,0.18103-1.093-0.6023-1.906-0.63452zm-1.9085,119.01v-1.2765h1.2715v1.2765h-1.2715zm1.9085,24.815c0.20573,1.4772-0.10155,2.4463-0.63699,3.1825-1.0385,0.10905-1.2864-4.164,0.63699-3.1825zm3.8195-61.729v1.2715h-1.274v-1.2715h1.274zm-0.63699-69.372h-1.9085c-0.9369-1.8515,2.8429-1.8515,1.9085,0zm0.63699,15.273h1.2715v1.2764h-1.2715v-1.2764zm5.7255-351.28v1.274h-1.2715v-1.274h1.2715zm-1.9085-2.5504c0.67912-0.58741,0.19828-2.3422,1.9085-1.906,0.0546,0.9022,0.1041,1.8044-0.63203,1.906v1.9159h-1.9134c-0.17846-1.0311,0.60229-1.103,0.63699-1.9159zm1.9085-39.454c1.678-0.19333,2.0919,0.88237,1.911,2.548h-1.911v-2.548zm-84.003,538.39zm-1.2715-29.272h1.2715v1.274h-1.2715v-1.274zm-3.1825-132.37c0.2776-0.78818,0.81297-1.3087,1.9085-1.274-0.28008,0.77826-0.81544,1.3037-1.9085,1.274zm-4.454,120.28c-0.1164-1.3905,0.51801-2.025,1.9085-1.911,1.6755-0.19076,1.6383,1.3285,1.9085,2.5455-0.85015,1.8118-2.8305-0.48828-3.817-0.63451zm-0.63947,32.457zm-1.91-176.3h-1.2765v-1.2765h1.2765v1.2765zm-2.548,40.086h-1.911c-0.93442-1.849,2.8454-1.849,1.911,0zm-7-393.92c-0.52546-1.7994,0.89971-1.6458,0.63698-3.185,1.388,0.56511,1.9432,3.5567-0.63698,3.185zm-0.63451-68.096h-1.911c-0.93442-1.8564,2.8454-1.8564,1.911,0zm-1.274,589.94c-1.854,0.93442-1.854-2.8454,0-1.911v1.911zm-3.8145-428.29c0.51306,0.12154,0.63203,0.63451,1.269,0.63451,0.47837,2.3174-2.191,1.2021-1.269-0.63451zm-1.2765-175.02zm0.637-12.722zm-3.817,458.84h-1.274v-1.269h1.274v1.269zm-1.92-306.11c-1.8639-0.57255-1.9531-0.57255-3.817,0-0.55768-2.0126,4.8109-3.2544,3.817,0zm-1.9085,7.6389c-1.3285,0.26768-1.6854-0.43622-2.548-0.63947v-1.269c0.61221-1.1897-1.9035-2.1316,0-2.548h0.63948c0.55271-0.92946,0.50561-2.4662,2.5455-1.9085,0.0274,1.0881-0.4734,1.6433-1.274,1.9085-0.0323,1.8936,1.8738,3.2271,0.63699,4.4565zm-2.548,448.65h-1.269v-1.274h1.269v1.274zm-1.906-89.094h1.2715v1.274h-1.2715v-1.274zm-3.8195,84.003c0.17845-1.4723,1.6978-1.4599,2.543-0.63451-0.19333,0.8675-1.5888,0.52545-2.543,0.63451zm1.274,49.638h-1.274v-1.274h1.274v1.274zm-2.548,10.184h1.911c0.93442,1.8564-2.8454,1.8564-1.911,0zm0-99.279zm-5.7255,38.182c1.1104,0.58742,3.4154-0.0199,3.1825,1.9085-1.8242,0.12631-3.4749,0.0842-3.1825-1.9085zm-1.2715-2.543h1.2715v1.274h-1.2715v-1.274zm0,51.549h-1.2765v-1.2765h1.2765v1.2765zm-0.63947,13.999h-1.274v-1.2765h1.274v1.2765zm-1.274-77.639zm0.63699-3.817c0.51554,0.11659,0.63451,0.63452,1.2765,0.63452-0.20077,0.86254-1.5962,0.52545-2.5455,0.63203-1.7623-0.26768-0.0372-1.9977,1.269-1.2666zm-5.0885,21.633c-0.5552,0.93443-0.95177,2.0176-2.548,1.9085-0.5651,0.28256-1.1376,0.56263-1.269,1.274-0.47092,1.1352-1.16,0.0915-1.911,0,0.2206-2.1068,1.906-2.7611,3.18-3.817,0.27017-1.217,0.23051-2.7413,1.9134-2.548,0.95674-1.9853,2.0052,2.6074,0.63452,3.1825zm-10.184-29.906c2.3596-0.45606,2.7314,1.0856,5.091,0.63451,0.0916,3.47-4.4118,0.77828-5.091-0.63451zm-0.63451-203.64c-0.40152,1.3582-3.9211,0.59485-4.4565,0-0.10175-0.74357,0.1388-1.1327,0.63451-1.274,0.54281,0.11401,0.60477-0.25034,0.63947-0.63452,0.68904-1.4624,3.9979-0.24289,3.1825,1.9085zm-4.4565,223.37h-0.63451c-0.0942,1.3954-1.6061,1.3706-3.185,1.274v-0.63451c-0.92946-0.55767-2.0151-0.95424-1.906-2.5504-0.45605-1.0311,2.9991-1.0311,2.5455,0h1.9085c0.84271-2.5728,3.4006,1.5194,1.2715,1.911zm-6.3625,10.182c1.621,0.0767,3.2742,0.12135,3.1825,1.9085-1.8218,0.12888-3.475,0.0842-3.1825-1.9085zm-5.728-199.18v3.1825c-1.4772,0.19828-2.4463-0.1041-3.1825-0.64194-0.31973-2.0746,3.1651-1.3434,1.2715-3.1825h-0.63699c-0.65186-2.139,1.9804-0.984,3.1825-1.2666,0.18104,1.0261-0.60228,1.0955-0.63451,1.9085zm-3.81-160.37h1.269v1.2765h-1.269v-1.2765zm-0.63698-169.92c-1.393,0.11401-2.025-0.52546-1.911-1.9159,0.59237,0.67912,2.3472,0.19829,1.911,1.9159zm-5.7304,525.66h-1.269v-1.274h1.269v1.274zm-3.817-342.38c0.57007-1.8639,0.57007-1.9605,0-3.8195,1.9853-0.91459,1.9853,4.7291,0,3.8195zm-1.274,132.37h-1.9085c-0.93442-1.8564,2.8454-1.8564,1.9085,0zm0,273.01h-1.2715v-1.274h1.2715v1.274zm-2.5455-532.67c-1.3583,0.2999-1.2095-0.90963-1.2715-1.911,0.51554,0.12393,0.63203,0.64195,1.2715,0.64195v1.269zm-3.817,351.29h-1.2765v-1.274h1.2765v1.274zm-6.9995,99.279c0.50315,1.6111,3.8963,0.33956,3.817,2.5405-1.4995-0.61964-4.0351-0.20572-3.817-2.5405zm-0.63699,30.546c-0.23298-2.4959,5.0736-1.3112,4.454,0.63451-1.16,1.1724-3.5691,0.33958-4.454-0.63451zm-1.26-680.93h1.274v1.274h-1.274v-1.274zm-3.8195,666.95c1.5491,0.3594,3.2742,0.54528,3.185,2.543-2.1737,0.27017-3.6286-0.19332-3.185-2.543zm-0.63451-640.85h1.911v1.911c-0.59486-0.6816-2.3497-0.20076-1.911-1.911zm0,423.2h-1.911v-1.2715h1.911v1.2715zm-3.1825-97.368c-1.4177-0.26769-0.49819-3.3733,0-3.817,1.0286-0.17846,1.098,0.60229,1.911,0.63451,0.34452-3.066,2.0622,0.1858,0,0.63947,0.55767,2.0448-2.0993,0.86998-1.911,2.543zm-3.8195,70.644c-0.3346,0.9815-0.66177,0.0397-0.63698-0.63947-2.315,0.48085-1.2046-2.1886,0.63698-1.274,1.1327,0.46597,0.0916,1.1575,0,1.9134zm-6.37,215.74h-1.274v-1.2715h1.274v1.2715zm-1.911-178.18v-1.9159c1.8564-0.93442,1.8564,2.8504,0,1.9159zm-2.5455,57.902c0.32717-1.792,1.5392-2.7016,1.9134-4.449,2.5331,0.74109,0.64443,4.9224-1.9134,4.449zm0.63699,116.47c-0.27016,1.7548-2.0027,0.0322-1.2715-1.274-0.17846-1.0311,0.60229-1.0955,0.63451-1.9085,0.53537,0.40401,1.9952,2.9718,0.63699,3.1825zm-2.5455,54.732c0.12155-0.5205,0.63947-0.64195,0.63699-1.274,2.315-0.48084,1.2046,2.1886-0.63699,1.274zm1.9085-218.92v1.2765h-1.2715v-1.2765h1.2715zm-3.18-22.907v-0.63451c0.19571-0.86503,1.5912-0.53289,2.5455-0.64194v2.5529c-1.1277-0.14872-3.1899,0.63698-2.5455-1.2765zm-2.5455,249.46v-1.9085h1.2715c0.91211,0.92946,0.48827,2.0176-1.2715,1.9085zm-10.81-682.86c0.60477-4.169,4.5283-0.34452,4.454,1.9085-3.0288,0.90964-1.5813-2.6645-4.454-1.9085zm1.911,279.38c-1.564-0.60228,0.81793-2.5058,1.911-2.543-0.19074,1.2938-1.7226,1.2418-1.911,2.543zm0,215.1h-0.63451c-0.35443,2.4092-2.5876-1.3806-0.63698-1.2715h0.63698c0.35196-2.4092,2.5827,1.3806,0.63451,1.2715zm-3.18,74.451c-1.1253,0.20572-1.1376-3.5592,0.63205-2.5405,0.27016,1.331-0.43376,1.6854-0.63205,2.5405zm0,105.01c-0.51554-0.12156-0.63699-0.63948-1.274-0.63948,0.12154-0.51306,0.63698-0.63451,0.63698-1.269,0.51555,0.12155,0.63452,0.63451,1.269,0.63451-0.1166,0.51802-0.63452,0.63451-0.63205,1.274zm-1.274-30.551zm0-360.83c-2.538,2.7686-6.7789,3.8219-10.182,5.7255,2.4587-2.8454,6.7516-3.8492,10.182-5.7255zm-13.37,340.47c0.28007-0.78323,0.81545-1.3087,1.911-1.2765-0.27759,0.78818-0.81544,1.3062-1.911,1.2765zm0,23.546h-1.2715v-1.274h1.2715v1.274zm-2.543-214.47h-1.274c-0.29743-1.3558,0.90962-1.2096,1.9085-1.2666-0.12154,0.51306-0.63698,0.63451-0.63451,1.2666zm-1.274,84.001h-1.2715v-1.269h1.2715v1.269zm-4.454,121.56c0.83527,0.22555,0.99886,1.1203,1.9085,1.2666-0.26025,1.5888-2.4662,0.0397-1.9085-1.2666zm-0.63699-8.2734c-2.4538,0.3693-0.9245-4.1937,0.63699-3.817-0.36931,1.1129,0.76835,3.7327-0.63699,3.817zm-2.5455-635.13h-1.2715v-2.5455h1.2715v2.5455zm-2.5455-5.0934c1.0261-0.17846,1.093,0.60229,1.906,0.64195v1.269c-1.0261,0.17846-1.093-0.60477-1.906-0.63451v-1.2765zm0,8.9104h-1.2715v-1.269h1.2715v1.269zm-1.2715,294.66h-2.5455-1.9135-4.4515-1.911-6.36-10.184c-0.51307,0.33213-1.0336,0.65929-1.911,0.63451h-1.9085-2.5455-3.1825c-0.56511,0.49323-1.4351,0.68408-2.548,0.63947-0.63699-1.9134,1.4202-1.1327,2.548-1.274h3.1825c0.56511-0.49323,1.4376-0.68657,2.5455-0.63947h1.274,2.5455,10.184c2.6-1.0385,3.5815,0.2305,6.36-0.63451h0.63946,5.723,0.63699c1.3136,0.38418,4.4218-1.0236,3.822,1.274zm-0.63947,204.28h-1.2715v-1.269h1.2715v1.269zm-3.1825,213.82h1.911c0.93689,1.8564-2.8454,1.8564-1.911,0zm-3.1825-114.55h1.9134c0.93194,1.8564-2.8479,1.8564-1.9134,0zm0,97.37c-1.0261,0.17846-1.093-0.60229-1.906-0.63451v-1.274c1.0286-0.17846,1.093,0.60228,1.906,0.63947v1.269zm-11.46-369.74v-0.63453h-0.63699v-1.274h1.2765c1.2318-0.25033,0.92698,2.8999-0.63947,1.9085zm1.2765,364.02h-1.2765v-1.2765h1.2765v1.2765zm-3.8195-383.11h-1.274c-0.29743-1.3583,0.90963-1.212,1.9085-1.2765-0.11897,0.5205-0.63947,0.63452-0.63451,1.2765zm-3.185,6.365v1.9085c-1.3855,0.11402-2.025-0.52546-1.9085-1.9085h1.9085zm-2.5455-1.911c-0.042-0.12631-0.0792-1.1897,0-1.2715,1.2542-1.2566,0.91212,4.0004,0,1.2715zm2.5455,148.28c-1.5342-0.25776-1.383,1.1624-3.18,0.63947-0.30982-2.1018,3.6683-2.6793,3.817-0.63947,2.3844-0.47589,3.1032,0.71631,3.1825,2.548-1.502-0.62213-4.0351-0.20573-3.8195-2.548zm3.185,246.28c-1.4153,0.35443-0.90963-1.2095-1.911-1.269,0.12155-0.72373,0.637-0.35691,0.637,0,0.51555-0.12154,0.63451-0.63946,1.274-0.63946,0.80801,0.14871,0.8328,1.9035,0,1.9085zm-4.4565-178.82h-1.274v-1.274h1.274v1.274zm-1.9085,85.912h-1.274v-1.274h1.274v1.274zm-2.5455-280.65h1.9085c0.93442,1.8564-2.8454,1.8564-1.9085,0zm-6.3674,269.19c-0.36435,1.1203,0.77084,3.7377-0.63451,3.817h-1.911c0.4511-2.781-1.0806-3.5815-0.63699-6.3625,1.3335-0.26767,1.6879,0.43623,2.548,0.63451,0.83528-0.76092,1.0013-0.25033,1.911,0,1.9581,0.63451-0.71136,1.7226-1.2765,1.911zm-2.5455,68.094zm-1.2715-25.455h1.911c0.93443,1.8564-2.8429,1.8564-1.911,0zm-4.4515,29.914c-0.47093,0.44862-3.1156,1.5813-2.548-0.64194,1.383-0.95425,3.5815-1.0807,5.728-1.2666-0.44119,1.2542-1.6978,1.6904-3.18,1.9085zm-3.8195-26.731c0.0119-1.678-0.59485-3.9905,1.906-3.1825-0.0718,1.626-0.11897,3.2717-1.906,3.1825zm-3.17-202.36c0.5552-0.93442,0.95424-2.0151,2.548-1.9085-0.55519,0.92947-0.95177,2.0176-2.548,1.9085zm-1.9085-264.11v1.906c-0.51058,0.34204-1.0336,0.66921-1.9085,0.64194-0.14376,0.9146-1.8986,0.21811-1.9085,1.269-0.10155,0.74853-1.1624,0.53785-1.911,0.63947-0.17608-1.4524,0.15368-2.3943,1.274-2.5504,1.0063-2.491-1.6507-1.3112-1.9085-2.5405-0.80057-0.15863-0.64195-1.269,0-1.274-0.20572-1.4723,0.10176-2.4414,0.63451-3.1825h0.63699c0.12155-0.51306,0.637-0.63451,0.637-1.2765,1.1773,0.0966,0.39161,2.1588,1.2715,2.5504,0.43374,2.3249,4.221,1.2938,4.4589,3.817h-1.2765zm-5.728,379.92h-1.2715v-1.269h1.2715v1.269zm-2.5455,108.19c0.41888-0.8551,1.3607-1.1823,2.5455-1.2715-0.15129,1.1203-1.0955,1.4475-2.5455,1.2715zm-1.2715-31.822h-1.274v-1.274h1.274v1.274zm-1.9085,28.64c-0.11401-1.388,0.5205-2.0225,1.9085-1.906,0.11402,1.3806-0.52297,2.0225-1.9085,1.906zm1.9085,6.3674h-1.274v-1.274h1.274v1.274zm0,32.454h-1.274v-1.2715h1.274v1.2715zm-3.1825-70.644h-2.5455c0.33707-0.51305,0.66424-1.0311,0.63697-1.906-0.61715-0.0199-0.49322-0.78322-0.63697-1.2765-0.85511-0.41639-1.1872-1.3582-1.2715-2.5405,0.19332-0.86749,1.5912-0.53288,2.543-0.63451,0.46598-1.1352,1.1575-0.0965,1.911,0,1.2467-0.31477,2.0498,2.9148,0.637,3.175v0.64195c0.17608,1.4475-0.15367,2.3893-1.274,2.5405zm-1.274,35.005h-1.2715v-1.2715h1.2715v1.2715zm-9.5425-441.02c-1.9655-2.0423,1.4946-2.2481,1.2715-4.4589v-1.906c-1.0385,0.10668-1.2839-4.1665,0.63451-3.185v2.548c-0.17846,1.0261,0.60477,1.0955,0.63947,1.9085,0.19075,2.7413,0.0446,5.1356-2.5455,5.0934zm1.906,40.091c-1.9853,0.29247-2.0349-1.3582-1.906-3.185,0.17113-1.4971,2.8181-0.38418,2.5455,0.63947,0.27016,1.326-0.44118,1.6854-0.63947,2.5455zm-3.8195,211.29c0.51553,0.11898,0.63451,0.63204,1.2764,0.63204,0.47093,2.3175-2.196,1.2046-1.2764-0.63204zm1.2764,148.28h-1.2764v-1.2765h1.2764v1.2765zm-3.8219,87.186h-1.9085c-0.17846-1.0311,0.60476-1.103,0.63699-1.9159h1.2715v1.9159zm-3.817-466.48c0.15367-1.1228,1.0955-1.4524,2.5455-1.274-0.1513,1.1203-1.093,1.4475-2.5455,1.274zm-1.274,1.9085c1.6805-0.19332,1.6433,1.326,1.9134,2.5405-1.6805,0.19571-2.0919-0.87492-1.9134-2.5405zm-3.817,41.997c-1.8069-0.84271,0.49075-2.828,0.63699-3.817,1.6879,0.0158,3.7476-0.34947,3.817,1.2765,0.60973,2.895-2.6719,4.0029-4.454,2.5405zm1.9085,215.74h-1.2715v-1.2715h1.2715v1.2715zm-1.2715-320.74c-0.51554-0.12154-0.63451-0.64195-1.274-0.63451-0.47341-2.3175,2.1935-1.2095,1.274,0.63451zm20.364,416.2zm4.4565-372.28v-1.2765-3.1825c1.0881-0.0271,1.6458,0.4734,1.9085,1.2765,1.4673-0.19829,0.7064,1.8366,1.9085,1.906v0.63451c0.71135,0.78323,0.55271,1.3062-0.637,1.2765-1.7226,0.57502,0.53785,2.3422,1.274,2.5405-0.54033,0.94928-1.6012,1.3706-3.185,1.274-1.4896-0.49076-2.5728-3.0734-1.269-4.449zm1.9085-181.38c1.0831-0.23793,1.2021,0.49324,1.2715,1.269-0.60228,2.4191-4.6275-1.6012-1.2715-1.269zm17.184-35.639c0.9493,1.4797-0.21563,2.7438,0.637,3.1825-1.3979,1.963-3.299-0.89477-3.1825-2.548,1.1426,0.0842,1.3409-0.78322,2.5455-0.63451zm1.906,402.84c-2.5133-0.0347-3.7848-1.3012-3.817-3.817,2.5157,0.0297,3.7872,1.3037,3.817,3.817zm1.9085,248.19c1.6012,0.63946-0.50562,2.8181-1.9085,2.5504-0.93441-2.4216,2.8479-0.12888,1.9085-2.5504zm1.911-350.01h1.911v1.2666h-1.911v-1.2666zm1.2715-197.92c1.393-0.11401,2.03,0.51802,1.911,1.911-0.59485-0.68161-2.3497-0.20076-1.911-1.911zm8.2759,6.9995v1.2764c-1.0286,0.17847-1.0955-0.60477-1.9085-0.64194v-1.2666c1.0286-0.18103,1.0955,0.6023,1.9085,0.63204zm0.63699-84.006c-0.16359,1.4946-2.7983,0.36683-3.1825,0,0.16358-1.4896,2.7958-0.36186,3.1825,0zm3.18,87.823c-1.388,0.1166-2.0225-0.51802-1.9085-1.906,1.388-0.1164,2.0225,0.52298,1.9085,1.906zm6.365-38.817c1.388-0.11403,2.025,0.52048,1.9085,1.911h-1.9085v-1.911zm8.908-102.46c0.19332,1.673-0.87989,2.0894-2.5455,1.911-1.45,0.17845-2.3918-0.15604-2.5455-1.2765-0.61963-0.01988-0.49323-0.77826-0.63203-1.274,2.6174-0.49819,3.2618,0.98152,5.723,0.63947zm0,143.83v1.274h-1.2715v-1.274h1.2715zm-1.2715-9.5499c0.46596-1.1327,1.1575-0.0892,1.9085,0-0.46597,1.1327-1.155,0.0892-1.9085,0zm2.548,13.367c2.3051-0.60972,0.64691,2.7462,1.906,3.1825-0.33461,0.51307-0.66177,1.0311-0.63451,1.906h-1.911c0.49323-0.56016,0.68656-1.4326,0.63946-2.5405v-2.548zm4.454,134.28v1.269h-1.2765v-1.269h1.2765zm-2.548-144.47h0.637c0.1041-0.74358,1.16-0.53785,1.911-0.63204,0.12155,0.51059,0.63699,0.63204,0.63699,1.2666,0.80305,0.33461,3.8641,1.5565,1.9085,2.548h-0.63947c-0.27759,0.78323-0.81297,1.3087-1.906,1.2765-0.78571-0.28256-1.3087-0.81297-1.2765-1.9085-1.6061,0.66426-2.8206-2.1514-1.2715-2.5504zm2.548-140.01v1.2765c-0.93194,0.90964-2.02,0.48579-1.911-1.2765h1.911zm0.63699,8.9104h0.63203v-0.63451c-0.2082-2.5182,4.7985-1.0311,4.4589,0.63451-0.38666-0.36683-3.0214-1.4871-3.1825,0v1.2715c1.5565,0.79562-1.9085,1.8515-1.9085,3.1825-1.5466-1.2542,0.98894-2.9569-1.9134-3.1825,0.26272-2.144,2.4686,1.7003,1.9134-1.2715zm15.905,372.3h1.2765v1.274h-1.2765v-1.274zm13.367-385.65h-1.906c-0.93939-1.8589,2.8429-1.8589,1.906,0zm3.1825,270.47h1.274v1.274h-1.274v-1.274zm0.63451,289.55c-0.52545-1.797,0.89725-1.6458,0.63948-3.1825,1.036-0.10905,1.2839,4.164-0.63948,3.1825zm33.731-406.66h1.2715v1.2764h-1.2715v-1.2764zm10.819,402.21c1.9134-0.64691,1.1302,1.4153,1.2715,2.543-1.1203-0.15624-1.45-1.0955-1.2715-2.543zm12.08-553.04c-0.78818-0.27512-1.3136-0.81297-1.2765-1.906,0.78323,0.27264,1.3062,0.81297,1.2765,1.906zm12.09,92.914h-1.911c-0.93689-1.8515,2.8454-1.8515,1.911,0zm2.5455,71.911h1.2715v1.2765h-1.2715v-1.2765zm10.182,28.008v1.9085c-1.3905,0.1166-2.0275-0.51802-1.911-1.9085h1.911zm3.8145,80.821zm0.63947-1.274c-0.78322-0.27512-1.3062-0.81297-1.274-1.911,0.78323,0.28505,1.3087,0.81546,1.274,1.911zm0.63699,57.277h1.2715v1.2765h-1.2715v-1.2765zm5.091,124.1v1.2715h-1.274v-1.2715h1.274zm-1.911-266.65h1.274v1.2715h-1.274v-1.2715zm2.5455,99.281c1.3558-0.2999,1.2145,0.91212,1.274,1.911-0.51554-0.12394-0.63451-0.64195-1.274-0.64195v-1.269zm1.911-183.29h1.911c0.17847,1.0311-0.60476,1.0955-0.63946,1.9085h-1.2715v-1.9085zm3.817,40.733c0.2553,1.2343-2.8974,0.92698-1.906-0.63452h1.269c-0.1166,0.53785,0.25033,0.59982,0.63699,0.63452zm0,516.11c-1.678,0.19333-1.6433-1.3236-1.906-2.5405,0.93195,0.55025,2.0151,0.9493,1.906,2.5405zm0.637-222.73zm7.6389-362.75c0.29742,1.3582-0.90964,1.212-1.9134,1.269-2.2679-0.52546,1.559-3.3609,1.9134-1.269zm-0.63947,273.01c0.5428,0.12155,0.59981-0.24538,0.63947-0.63451,0.74605,0.10155,0.53289,1.16,0.63202,1.9085-1.0831,0.23547-1.1971-0.49323-1.2715-1.274zm1.2715,235.47h1.2765v1.2715h-1.2765v-1.2715zm-0.63202-546.03h1.9085v1.906h-1.9085v-1.906zm5.091,577.85c-0.27016,1.217-0.23051,2.7339-1.9134,2.5405-0.17846-1.6656,0.23546-2.7314,1.9134-2.5405zm-1.2765-180.73h1.2765v1.2715h-1.2765v-1.2715zm1.2765-131.74c2.03-0.5428,1.9655,0.99886,3.18,1.274-0.54033,1.217-2.7908,1.7226-3.817,0.63453,0.33709-0.51307,0.66179-1.0311,0.637-1.9085zm2.5455-126.64c-0.44366,0.51306-0.99142,1.7424,0,1.9085-1.3855,2.3447-3.2122-2.6818,0-1.9085zm0-20.998c2.315-0.47836,1.2021,2.1911-0.63947,1.2666,0.12394-0.51306,0.63947-0.63204,0.63947-1.2666zm1.2715,407.92h1.2715v1.274h-1.2715v-1.274zm0-80.816c-1.1178-0.15367-1.45-1.0955-1.2715-2.5504,1.911-0.63947,1.1253,1.4227,1.2715,2.5504zm0.637-334.75c1.5813,0.0942,0.18579,2.1564,0,2.548-1.5813-0.0968-0.18838-2.1588,0-2.548zm0.63451-1.911h2.548v1.2765h-2.548v-1.2765zm0-75.096zm2.548,21.001v1.274h-1.274v-1.274h1.274zm0-15.275c0.1166,1.3905-0.52297,2.025-1.9134,1.9085,0.68161-0.58989,0.19829-2.3447,1.9134-1.9085zm1.269,32.457c1.383-0.10175,0.28999,2.2604,0.63948,3.1825-1.1054-0.57503-1.6458-2.2258-0.63948-3.1825zm-239.94,100.57h-1.2715v-1.2765h1.2715v1.2765zm-1.2715,171.19c-1.0261,0.17845-1.093-0.60477-1.9085-0.63451-0.2528-1.2343,2.8974-0.92699,1.9085,0.63451zm-1.274,318.19c-0.51058-0.33214-1.0311-0.6593-1.9085-0.63204,0.67913-0.59733,0.19829-2.3522,1.9085-1.9085-0.0571,1.735,1.0608,1.2814,0,2.5405zm-3.18,37.55zm-3.8195-83.364c-1.616-0.0842-2.4662-0.92947-2.5455-2.548,0.83527,0.22307,1.0013,1.1203,1.911,1.2715,1.0286-0.17845,1.0955,0.60477,1.9085,0.63451-0.0199,0.62212-0.78074,0.49324-1.274,0.64196zm-9.5474-161.64c0.89476-0.80058,0.037-3.356,2.548-2.543-0.75347,0.94186-0.55271,2.8429-2.548,2.543zm-2.5455,49.636h-1.2715v-1.2765h1.2715v1.2765zm-11.45-125.37h-1.274v-1.274h1.274v1.274zm-1.9085-43.913h-1.274v-1.2765h1.274v1.2765zm-3.82-233.57c0.12135-0.51307,0.63699-0.63203,0.63699-1.2666h1.2715c0.29742,1.3558-0.90963,1.2095-1.9085,1.2666zm1.2715,233.56h-1.2715v-1.2765h1.2715v1.2765zm-1.2715-245.66c-0.0694,1.5888-1.1922,1.9754,0,3.1825,0.94434,0.53784,0.9245,2.0522,1.2715,3.185-0.51306-0.12135-0.63451-0.63947-1.2715-0.63451-1.7598-0.33212-3.128-6.1667,0-5.7329zm-8.2734-118.37h1.911c0.93441,1.8589-2.8454,1.8589-1.911,0zm0.63451,340.48h-2.543v-1.269h2.543v1.269zm-0.63451,271.11h-1.2715v-1.911h1.906c0.18342,1.0261-0.5998,1.098-0.63451,1.911zm-5.7255-205.55c-0.12392,0.71629-0.64194,0.35195-0.63698,0-1.4995-0.17113-0.39162-2.8181,0.63698-2.548,2.2902-0.60725,1.2393,2.8627,0,2.548zm0.63451,3.817h-1.911c-0.93442-1.8564,2.8479-1.8564,1.911,0zm-3.817,218.28h-0.63699c-0.51554-0.12135-0.63451-0.63948-1.274-0.63948-2.9668,0.45358-2.9668-1.0906,0-0.63451h1.274c0.27761-0.94681,0.81297,0.24786,1.9085,0-0.15863,0.69152-1.2665,0.43127-1.2715,1.274zm-12.093,15.268c0.57007-1.3384,0.0199-3.7996,2.5455-3.1775-0.9592,0.9493-0.19075,3.6262-2.5455,3.1775zm-8.9104,83.369c0.51554,0.12155,0.63451,0.64195,1.274,0.64195,0.4734,2.3125-2.1935,1.2021-1.274-0.64195zm-5.09-308.02c-0.16359,1.4921-2.7958,0.36434-3.18,0-0.75845-1.8887,2.6793-2.7364,3.18-1.274,0.80057,0.16101,0.64195,1.269,0,1.274zm-5.091,152.73c-1.3285,0.27512-1.6854-0.43622-2.5455-0.63451,0.11401-1.844,3.0238-1.5293,2.5455,0.63451zm-5.0934-57.27zm-6.36-334.11zm-2.55-103.73c-2.4662-0.65929-2.6174,0.33213-4.4515-0.64195,0.15129-0.91459,5.2372-1.4797,4.4515,0.64195zm-4.4515,229.74h-1.911c0.11896-0.51058,0.63946-0.63451,0.63451-1.274-0.65435-2.1316,1.9804-0.98894,3.1825-1.269,0.17845,1.6582,0.21562,3.1825-1.906,2.543zm-3.8195,68.731zm-1.274-260.92h1.274v1.274h-1.274v-1.274zm2.5455-113.28c-1.4202-0.28008-2.2704-1.1253-2.5455-2.548,1.621,0.07667,2.4687,0.92947,2.5455,2.548zm24.82,166.1v1.269h-1.274v-1.269h1.274zm-0.64-141.92c-0.46349-2.0944,1.2641-0.9716,1.274,0,2.5827,1.16-4.1194,1.911-1.274,0zm6.9995,367.2h1.274v1.274h-1.274v-1.274zm21.64,210.65c-0.41887,1.9011-1.3607-0.60972-2.548,0,0.0968-1.5912,2.1564-0.18579,2.548,0zm-1.9134-215.74c1.5863,0.0965,0.18837,2.1588,0,2.548-1.5789-0.0968-0.18343-2.1588,0-2.548zm23.54-222.1h-1.906c-0.9369-1.8589,2.8404-1.8589,1.906,0zm-1.2715-174.37h1.2715v1.2665h-1.2715v-1.2665zm32.454,628.75v1.2715h-1.269v-1.2715h1.269zm-1.9085-393.93c1.0385-0.10905,1.2839,4.1615-0.63698,3.1825-0.20078-1.4797,0.10155-2.4463,0.63698-3.1825zm-113.27,394.57c-0.73861,0.1041-1.1327-0.14118-1.274-0.63947h-0.63699-0.63451c-0.25777,1.5863-2.4686,0.0372-1.911-1.269h1.911c0.5676-0.50067,1.4376-0.68409,2.5455-0.64195,1.5813,0.0968,0.18579,2.1588,0,2.5504zm-2.5455-499.57h-2.5455c-0.44366-2.5182,2.6793-2.087,2.5455,0zm-3.1825,493.2h-1.274v-1.2715h1.274v1.2715zm-1.9085-542.85h-1.274v-1.2665h1.274v1.2665zm-2.5455,1.274h-1.274v-1.274h1.274v1.274zm-2.5455,105.01v-1.906c1.854-0.94184,1.854,2.8429,0,1.906zm0.63699,190.92c-1.6656,0.17846-2.7388-0.23299-2.548-1.911,1.6631-0.17846,3.185-0.21068,2.548,1.911zm-1.27-376.1c-0.46845,1.1352-1.1575,0.09657-1.9085,0,0.4635-1.1327,1.155-0.0918,1.9085,0zm-8.2759,65.553h-0.63451c-2.9718,0.63452-2.2332,4.977-5.0885,5.7255,0.68409-1.8589,1.4227-3.6683,1.269-6.365h0.63699c-0.17846-1.0261,0.60229-1.0955,0.63699-1.9085,0.0619-1.6136,2.4835-1.6136,2.5455,0-0.10668,0.74109,0.14117,1.1327,0.63451,1.274,2.0052,0.31974,2.4885-1.388,3.8195,0-0.0694,1.6284-2.1316,1.2616-3.8195,1.274zm1.9134,4.4515h-1.2765v-1.269h1.2765v1.269zm-7.0044,347.48c1.0633,0,2.1241-0.007,3.185,0,0.9716,1.9531-4.159,1.9531-3.185,0zm-2.5455,253.92zm5.7304-262.19c-3.0858,0.10906-5.4355-0.50562-7.6389-1.2715,2.7934-1.4549,6.3005-1.3706,7.6389,1.2715zm-11.453,7.0019v-0.63946h-1.911c-0.64442-1.9159,1.4153-1.1278,2.5405-1.269,3.5567-0.53785,2.9222,3.066-0.62956,1.9085zm-4.4565-83.369v-0.63451c-1.1798-0.21812,1.7325-1.5888,2.5455-1.911,0.37674,1.3161-0.7857,4.1764,0.63451,4.4515-0.33461,1.1178-5.6164-0.0892-3.18-1.906zm0,5.091c-0.11897-1.3905,0.5205-2.025,1.9085-1.9085,0.11402,1.3905-0.52297,2.0225-1.9085,1.9085zm0,5.091c-0.12889-1.8242-0.08167-3.47,1.9085-3.1825-1.2616,0.43624,0.39658,3.7897-1.9085,3.1825zm-3.171-303.56h-1.9085c-0.93938-1.854,2.8429-1.854,1.9085,0zm-5.728,668.86c0.22308,2.947-3.2395-1.0187-1.274-1.906,0.27264-1.6036,1.8193,0.60725,1.274,1.906zm-2.545-136.84h-1.911v-1.274h1.911v1.274zm-3.185-211.28h1.274v1.2765h-1.274v-1.2765zm-0.63204,2.543h-1.9134c-0.93443-1.8515,2.8479-1.8515,1.9134,0zm-3.185-107.54c-1.0807,0.22803-1.1996-0.50066-1.274-1.274-1.5813-0.0968-0.18342-2.1588,0-2.5504,1.1451-0.0769,1.3459,0.78075,2.5455,0.63947,0.20572,1.3335,0.09678,5.5074-1.2715,3.185zm-8.271-244.38h-1.274c-0.29743-1.3583,0.90963-1.217,1.9085-1.2765-0.11897,0.51306-0.63451,0.63452-0.63451,1.2765zm-0.63451,57.272h-1.9135c-0.93442-1.8564,2.8479-1.8564,1.9135,0zm-3.8219,124.1h-0.63699v0.63699c-1.3285,0.26768-1.6854-0.43623-2.548-0.63699-0.11164-0.5428,0.25281-0.59981,0.63947-0.63699-0.20324-1.1203,3.5642-1.1352,2.5455,0.63699zm-4.454,369.11c-0.80306-0.89973-3.3609-0.0397-2.548-2.5529,1.5342,0.59237,3.0833,1.16,4.4565,1.911,0.52793,1.3806,2.4017,1.4153,2.5455,3.1825-2.8057,0.47341-2.6074-2.0622-4.454-2.5405zm-3.8195-23.549h1.2715v1.2715h-1.2715v-1.2715zm-2.547-531.39c0.19829-0.86501,1.5962-0.52546,2.548-0.63451,0.56759,2.2258-2.0746,1.0856-2.548,0.63451zm-1.269,657.4c1.6656-0.17846,2.7363,0.23298,2.5455,1.911-1.217-0.26769-2.7413-0.23051-2.5455-1.911zm-0.637-663.76c-1.2542-1.2467,4.0054-0.90963,1.274,0-0.12888,0.04462-1.1922,0.08427-1.274,0zm-1.911,529.48c0.28008-0.78324,0.81545-1.3062,1.911-1.274-0.2776,0.78572-0.81297,1.3037-1.911,1.274zm-2.543-324.56c0.11659-1.7846,1.1054-2.7066,3.1825-2.5405-0.12393,1.7871-1.1079,2.7091-3.1825,2.5405zm-3.822,409.2h-1.2715v-1.274h1.2715v1.274zm-1.9085-81.46h-1.269v-1.274h1.269v1.274zm-3.18,77.639c-0.77083,0.19829-2.1935-1.8366-0.63699-1.9085,0.26769-1.4153,3.3758-0.50067,3.817,0-0.15605,1.1773-2.2877,3.5666-3.18,1.9085zm-0.63699,35.639h-1.9085v-1.906c1.0286-0.18103,1.0955,0.59981,1.9085,0.63203v1.274zm-0.63451-33.731c-0.12393,0.5205-0.63947,0.63451-0.63947,1.274-2.315,0.47589-1.2046-2.1886,0.63947-1.274zm-8.909-604.57c-0.27016-1.3335,0.43623-1.6854,0.63451-2.5504,1.4772,0.21811,2.9842,0.4164,2.5455,2.5504h-3.18zm-4.457,616.66c-0.04719-2.1663,2.3596-1.8837,4.4565-1.911-0.11163,2.0126-2.5182,1.73-4.4565,1.911zm-3.18-39.456h-1.274v-1.269h1.274v1.269zm-1.9134-364.65zm-2.543-2.5455zm-5.0911,408.58c-0.55024-2.6372,3.1775-1.9407,3.18,0h-3.18zm-1.9085-5.73h-1.911v-1.911h1.911v1.911zm52.821-84.64c-0.12393,0.51306-0.63947,0.63451-0.63947,1.269-2.3125,0.48083-1.2021-2.191,0.63947-1.269zm0-367.83h1.274v1.269h-1.274v-1.269zm37.548-89.102c0.51554,0.12135,0.63451,0.63948,1.269,0.63948,0.56264,1.3087-1.6483,2.8578-1.906,1.2764-0.49323-0.57006-0.68408-1.4425-0.63451-2.548,0.74109-0.1041,1.1302,0.1388,1.2715,0.63203zm562.58-81.466c-0.87988,0.23546-1.1971-0.09677-1.4599-0.47836h-127.35c-0.0445,1.1129-1.2566,2.8925-2.2828,3.0214-0.33213,0.93938-0.94185,1.6086-1.274,2.5504h-0.63451-2.5455c-0.33956,0.51058-0.66674,1.0286-0.63699,1.9085-1.1178-0.58494-2.2134-1.1872-1.911-3.185,0.94186-0.33461,1.6036-0.93938,2.548-1.274-0.23795-1.0831,0.49571-1.1971,1.2715-1.2665,0.30735-1.4053-0.84766-1.3434-1.5318-1.7548h-43.045c0.009,0.15863-0.0139,0.30238,0.0297,0.47836-0.6816,0.58742-0.19828,2.3447-1.911,1.911v-0.63451c-0.30238-0.50563-0.41144-1.1154-0.39657-1.7548h-179.36c-0.0472,0.45606-0.46845,0.73365-1.393,0h-135.77c0.24539,1.73-1.4177,1.2591-1.4574,0h-19.551c0.51554,0.49076,0.95176,1.0608,1.269,1.7548v0.63451c1.0385-0.29247,1.0385,3.47,0,3.1825v0.63203c-0.3346,0.94185-0.94186,1.6086-1.2715,2.548-3.1676-1.4797-0.73118-4.7365-0.63451-6.3625-0.15605-1.1228-1.098-1.4549-2.548-1.2765v-1.1129h-15.575c0.40896,0.29991,0.70391,0.94681,0.30239,1.7548-0.51555-0.12393-0.63452-0.64195-1.274-0.64195-0.11659-0.56511-0.042-0.91707,0.11898-1.1129h-73.304v1.1129h-1.274v-1.1129h-46.423v743.57h248.8c-0.0694-0.84766,0.56263-0.99142,1.274-1.0559-0.11401,0.53784,0.25034,0.59981,0.63699,0.63451-0.0274,0.21067-0.14375,0.33709-0.29743,0.42135h493.16v-591.77c-0.23298,0.12393-0.52794,0.18341-0.92946,0.13642-1.0484-0.99887-0.58247-2.4538,0.92946-2.6v-2.3299c-0.6469,0.0991-1.2095,0.41392-1.564,1.1154-3.1676-1.2765,1.3632-1.8589,1.2715-3.8195,0.0991,0.0199,0.19572,0.0422,0.29248,0.0619v-144.37h-84.341c0.0224,0.15863,0.0521,0.31726,0.0422,0.47836" fill="#7b9828"/><!--#7b9828-->

   <path id="path74" d="m256.63,535.2h1.274v1.274h-1.274v-1.274zm5.091,19.729v1.911c-1.388,0.11401-2.0225-0.52299-1.906-1.911h1.906zm0-19.729h1.2765v1.274h-1.2765v-1.274zm2.548,19.095h-1.2715v-2.548h1.2715v2.548zm16.542-19.095h1.2765v1.274h-1.2765v-1.274zm2.5504-7.634c1.1203,0.15367,1.4475,1.0955,1.274,2.543-1.9853,0.29742-2.2803-1.5987-1.274-2.543zm0,5.7255v-1.9085c1.8589-0.93442,1.8589,2.8429,0,1.9085zm81.463,39.456c1.3806-0.11638,2.0225,0.5205,1.906,1.9135h-1.906v-1.9135zm35.632,3.1825c0.61469-1.7821,6.4542-0.18578,3.8244,1.274,0.70391,2.4439-2.7289,4.0029-3.8244,2.5455-0.61467-0.0199-0.49323-0.78075-0.63451-1.2715-1.1203,0.20076-1.1327-3.5666,0.63451-2.548zm-175.2,7.7406c8.3949,5.3934,22.582,4.5606,30.848,0.79066,0,0,9.9985,3.7451,18.029,3.646,0.25033-0.73118,0.26768-1.6953,1.5888-1.3558,0.047,0.56512-0.0671,0.97407-0.26769,1.2913,4.4961-0.32469,8.1223-2.0522,8.5288-6.7293-0.68905-0.0942,1.3781,0.19332,0.69151,0.0965,11.52-1.9085,32.258,10.834,44.872,11.188,18.235,0.43622,39.823,2.0374,58.536-0.97904,13-2.4067,32.375-15.181,24.637-30.335-6.0502-12.1-33.062-15.166-41.697-3.7079-5.8593-13.478-7.1581-19.288-23.13-20.815-11.136-0.85015-23.348,0.96168-33.094,5.2322-7.7951-10.963-17.273-19.13-29.604-20.736-0.2305,0.78324-0.68657,1.3484-1.8341,1.217,0.0744-0.49075,0.15605-0.96663,0.2652-1.4177-3.0238-0.25281-6.2162-0.11163-9.592,0.47092-13,2.4067-35.134,14.8-29.663,31.042-17.444-1.0311-41.33,18.857-19.115,31.101" fill="#ded695"/>

   <path id="path76" d="m320.27,147c0.84023,0.22555,1.0063,1.1203,1.9184,1.2715-0.12393,0.51802-0.64196,0.63451-0.64196,1.2765h-1.2764v-2.548zm31.19-0.63452h1.269v1.269h-1.269v-1.269zm6.36,15.273c0.19076-2.0993,3.3733,1.0806,1.274,1.269h-1.274v-1.269zm11.456,13.999c-1.6631,0.18104-2.7338-0.23546-2.543-1.9085,1.2194,0.26521,2.7363,0.2305,2.543,1.9085zm3.1825-2.5455h2.543c0.13384,2.0845-2.9842,2.5158-2.543,0zm6.3649,0.63699v1.9085c-1.8564,0.93442-1.8564-2.8429,0-1.9085zm-94.359,15.023c3.9012,2.3769,9.1508,2.0498,9.1508,2.0498,22.748,3.2494,47.643,1.1377,71.489,0.0323-0.62213-0.50563-1.1699-1.0831-1.5541-1.8292-0.55024-0.51555-0.37674-1.7449-1.274-1.9134v-0.63204h-1.9085c-0.17846-1.0286,0.60229-1.0955,0.63451-1.9134h1.274c-0.1041,0.74357,0.14138,1.1352,0.63451,1.2765v0.63698c0.0718,1.1996,2.1068,0.44118,1.9159,1.906,0.56015,0.28257,1.1327,0.56016,1.2665,1.274v1.16c8.9898-0.0248,32.514-1.1947,37.915-9.8325,0.34948-0.75101,0.57504-1.4574,0.80554-2.1638-1.0187,0.10176-2.1663-0.51059-1.8069-1.8911,0.93937-0.13147,1.6582-0.0397,2.258,0.17349,2.7487-13.496-16.378-18.522-26.394-12.517-5.4628-17.486-6.5583-39.347-30.603-38.252-21.861,1.0906-33.882,22.954-34.977,41.533-19.675-27.324-54.637,5.1678-28.826,20.902" fill="#ded695"/>

   <path id="path78" d="m179,418.74h1.274v1.2764h-1.274v-1.2764zm42.639-19.727c1.0236,0.18104,1.0955-0.5998,1.9085-0.63202,0.0718-1.559,2.0993-0.1388,1.9085,0.63202v0.637c0.62212,0.0199,0.49571,0.78075,0.63451,1.2765-2.253-0.56016-1.564-0.0792-3.817-0.63946-1.9457-0.45854-1.8713,1.098-3.817,0.63946-0.60723-2.31,2.7487-0.65186,3.1825-1.9135zm38.817,46.461c-0.1735,2.2307-2.3695-1.5987-2.543,0.63204-1.9407-1.7771,1.8713-2.3893,2.543-0.63204zm2.5504-5.091h1.2715v1.2715h-1.2715v-1.2715zm6.365,0c-0.76092,0.0918-0.33461-0.3346-0.64196-0.63947-3.004-3.0065,3.5295,0.27512,0.64196,0.63947zm-124.74-26.731c-0.33958-0.50811-0.66674-1.0311-0.63948-1.911,0.57007-0.49075,1.44-0.67913,2.548-0.63699,0.18104,1.6656-0.2305,2.7388-1.9085,2.548zm-28.005,31.822h-1.9085c-0.11402-1.3905,0.52545-2.0275,1.9085-1.9134v1.9134zm-13.999-31.822h-1.274v-1.2715h1.274v1.2715zm42.773-38.549c-17.499,5.2669-18.785,17.286-21.261,32.91-9.0691-6.2187-16.316-19.682-30.642-17.615-11.3,1.8094-10.474,12.946-8.4891,22.885,0.17112-0.24043,0.64939-0.40649,1.7127-0.2652-0.2082,1.4351-1.1401,1.3285-1.5788,0.91706,0.34204,1.6656,0.70639,3.294,1.0509,4.8307,2.3323,11.706,13.558,31.379,27.973,28.439,0,0,89.146,8.2214,122.07,5.4058,15.109-1.103,43.226,0.002,38.564-23.41-3.636-16.252-31.22-22.597-43.64-13.275-3.9037-13.635-5.6115-31.453-22.894-34.982-17.286-3.527-25.269,14.182-30.097,26.922-4.5085-16.339-14.899-38.143-32.772-32.762" fill="#ded695"/>

   <path id="path80" d="m499.74,267.28c0.51801,0.12135,0.64194,0.63947,1.2764,0.637,0.47836,2.3125-2.191,1.2021-1.2764-0.637zm8.2759,25.455c2.4959-0.22803,1.3136,5.0786-0.63451,4.454-1.1724-1.16-0.33957-3.5667,0.63451-4.454zm13.999-5.091c-0.35939,1.5516-0.5428,3.2717-2.543,3.1825-0.26768-2.1737,0.19333-3.6261,2.543-3.1825zm-1.2666,24.181h-1.2764v-1.269h1.2764v1.269zm17.816-18.453c-1.6136,0.50562-0.33958,3.8963-2.543,3.817,0.61965-1.497,0.20573-4.0351,2.543-3.817zm12.09-21.001h1.274v1.2765h-1.274v-1.2765zm57.914-20.366c-1.331,0.26768-1.6854-0.43623-2.543-0.63452-0.20572-1.1228,3.5617-1.1352,2.543,0.63452zm28.637-2.5455c1.8019-0.52297,1.6458,0.89724,3.185,0.63699,0.10667,1.036-4.1615,1.2839-3.185-0.63699zm4.4515,44.547c0.64691,1.9159-1.4153,1.1302-2.5405,1.2765,0.1513-1.1203,1.093-1.4524,2.5405-1.2765zm-2.5405,6.3674h-1.2764v-1.274h1.2764v1.274zm-121.93,18.77c44.825,10.799,78.3,9.3541,123.66,5.5743,12.963-1.0831,40.502-5.0315,51.301-12.594l4.3201-4.3177c5.9386-11.885,20.522-40.502,2.7016-49.145-11.662-6.0179-20.696,1.8515-27.847,10.648,1.5293,0.41888,2.4587,1.4475,4.0673,1.7895-0.68904,2.3323-4.2408,0.90716-4.4366-1.326-2.9619,3.6881-5.6065,7.5001-7.9661,10.487,0.54032-10.794,3.7798-26.459-2.6992-35.634-9.7184-13.503-32.4-22.684-47.521-24.843-15.119-2.1588-32.397,0-43.199,10.799-11.025,11.02-10.829,24.089-12.792,38.202,0.25032,0.17846,0.47092,0.38914,0.88237,0.40153-0.14634,0.19075-0.56016,0.49323-1.041,0.74604-0.004,0.0249-0.007,0.0472-0.009,0.0718-0.004-0.0199-0.0139-0.037-0.0199-0.0571-0.87989,0.45853-1.9804,0.74853-2.1142-0.12393-1.7548-0.27017-0.0321-1.9977,1.274-1.269,0.15863-0.0274,0.26025,0,0.37675,0.0119-3.522-9.421-16.185-15.33-25.438-15.843-12.96-0.54043-15.122,7.562-15.122,18.359-12.42-12.958-37.258,2.7016-35.639,18.902,1.621,18.899,22.139,25.923,37.26,29.16" fill="#ded695"/>

   <path id="path82" d="m84.699,247.63s30.766,2.5951,46.999-1.093c11.553-2.6273,25.14-2.1861,26.231-10.93,1.098-9.8374-5.4627-14.21-14.205-9.8374-2.1886-14.21-16.396-10.928-22.954-2.1861-3.2791-6.5558-6.5583-29.549-16.396-28.454-13.114,1.0906-14.207,24.084-12.024,32.829-31.693-26.233-36.071,21.858-7.6513,19.672" fill="#ded695"/>

   <path id="path84" d="m84.169,751.58h1.274v1.2715h-1.274v-1.2715zm30.548-0.63698h1.274v1.2715h-1.274v-1.2715zm26.731-8.2734c1.8589-0.93442,1.8589,2.8454,0,1.906v-1.906zm2.543,5.728h1.274v1.2715h-1.274v-1.2715zm5.091-5.091h1.9085c0.94185,1.8564-2.8429,1.8564-1.9085,0zm6.3649,8.2734v1.9085c-1.331,0.26769-1.6829-0.43623-2.5405-0.637,0.1511-1.1203,1.093-1.45,2.5405-1.2715zm4.4589-3.1825c0.26767,1.3285-0.43623,1.6829-0.64195,2.5455-1.8441-0.11401-1.5293-3.0263,0.64195-2.5455zm6.9995-5.091h1.9085c0.93442,1.8564-2.8454,1.8564-1.9085,0zm3.8145-5.7304c0.35443,1.4128-1.2145,0.90715-1.2715,1.911-1.5838-0.25776-0.0397-2.4686,1.2715-1.911zm3.817-19.09c0.77083,0.21812,0.5205,1.6953,0,1.9085-1.3731,0.5775-1.4698-2.3299,0-1.9085zm1.911,12.73v-0.637c1.0435-0.46596,2.7735,1.2641,1.274,1.2715,0.29496,1.9853-1.3582,2.0349-3.185,1.911-1.5987-0.64195,0.50563-2.8156,1.911-2.5455zm2.548,11.453h-1.9085c-0.11401-1.388,0.5205-2.025,1.9085-1.911v1.911zm3.817-35.639h1.9085c0.11638,1.388-0.51803,2.025-1.9085,1.911v-1.911zm8.908,29.274c0.1166,1.388-0.51802,2.025-1.9085,1.911-0.11401-1.3905,0.52545-2.025,1.9085-1.911zm-0.63451-7.0019c1.1203,0.15625,1.4475,1.0955,1.2765,2.548-1.9853,0.29742-2.2803-1.5987-1.2765-2.548zm3.1825,5.7304c0.18103,1.0261-0.59982,1.093-0.63947,1.906-1.2294,0.25529-0.92947-2.8974,0.63947-1.906zm2.5455-9.5474h1.906c0.93441,1.8564-2.8429,1.8564-1.906,0zm4.4565,1.911h1.274v1.2715h-1.274v-1.2715zm4.449-8.2734h1.2765v1.2715h-1.2765v-1.2715zm2.5504,4.4565h-1.274v-1.2765h1.274v1.2765zm-177.32-25.07c-15.33,7.4357-2.7859,32.058,2.3224,42.277l3.7178,3.7178c9.2897,6.5037,32.985,9.9019,44.133,10.834,39.023,3.2519,67.823,4.4961,106.38-4.7935,13.005-2.7884,30.66-8.8286,32.05-25.09,1.393-13.934-19.972-27.405-30.66-16.257,0-9.2896-1.8564-16.262-13.007-15.796-8.3602,0.46349-19.972,6.0403-22.3,14.866-1.8564-12.544-1.3905-24.156-11.149-33.914-5.7577-5.7552-13.657-8.6477-21.925-9.5821,0.26025,1.5194-1.4723,3.1131-1.9977,1.5268-0.004-1.0112-1.098-0.93937-1.3012-1.7523-4.0153-0.20573-8.0578-0.0347-11.939,0.51801-13.008,1.8564-32.519,9.7581-40.881,21.37-5.5743,7.8967-2.7859,21.37-2.3224,30.657-6.9648-8.8237-16.723-26.013-31.126-18.582" fill="#ded695"/>

   <path id="path86" d="m520.75,748.4h1.2666v1.2715h-1.2666v-1.2715zm-91.186,28.803,8.1198,2.8875c15.327,0.79066,14.232,4.8852,29.691,4.2854,24.612-1.1079,49.581,1.3161,74.327-1.1798,9.0839-0.62211,31.53-2.1018,42.051-8.6898v-0.64939h0.9592c3.5468-2.5256,5.4231-5.7379,4.3598-9.8647-5.6065-21.546-29.772-10.591-40.988-3.2791-3.4204-8.033-1.735-25.373-11.176-29.091-9.4384-3.7179-23.539,11.714-24.347,20.039-1.6829-3.2568-3.356-6.2162-5.1678-8.8088,0.0372,0.3247,0.0422,0.67914-0.009,1.0906-1.9853,0.2999-2.2753-1.5987-1.274-2.543,0.12632,0.0139,0.20078,0.0767,0.30735,0.11401-5.0067-6.5608-11.285-10.291-22.067-9.3962-14.071,0.73366-24.099,10.261-28.152,23.17-8.6824-4.3424-33.649-6.769-37.012,6.2088-1.2319,5.4776,5.6586,13.85,10.378,15.707" fill="#ded695"/>

   <path id="path88" d="m710.39,617.93h-1.2764v-1.274h1.2764v1.274zm-63.642,28v-1.9085c1.8564-0.93442,1.8564,2.8429,0,1.9085zm53.48-26.171c-3.7178-9.2896-4.1764-28.34-18.116-29.267-12.08-0.92946-13.476,16.262-18.587,23.693-4.1789-11.615-0.92699-39.488-19.043-38.559-21.836,0.92946-20.438,29.733-21.836,44.133-5.5743-7.8992-22.297-35.773-28.337-14.864-1.2195,4.0004-0.2206,9.83,2.1663,15.774v-0.8328c0.27265-2.1638,4.5209,1.093,1.2715,0.637v0.63946h-1.0807c4.0351,9.7804,11.748,19.762,19.479,22.339,12.539,4.1813,33.909,3.7154,33.909,3.7154,24.161-1.393,20.907-1.393,45.529-3.2494,10.219-0.92946,30.66-5.1133,27.41-19.98-2.3224-13.005-16.725-13.469-22.766-4.1789" fill="#ded695"/>

   <path id="path90" d="m560.2,453.74h-1.2765v-1.269h1.2765v1.269zm-8.9104-12.725c1.0113-0.46845-0.14633-3.1131,1.911-2.548,0.17846,1.6656-0.23794,2.7388-1.911,2.548zm-7.6389,40.091h-1.274v-1.269h1.274v1.269zm-5.7255-20.998c1.388-0.11401,2.0225,0.5205,1.9085,1.9085-1.388,0.11401-2.0225-0.52298-1.9085-1.9085zm-4.4565-0.63699h-1.2764v-1.2715h1.2764v1.2715zm-10.184,20.366v-1.2765c1.3583-0.29247,1.2194,0.90963,1.274,1.9134-0.51803-0.12156-0.63204-0.64195-1.274-0.63699zm-9.54-7.6364c0.75348-1.326,4.6498-0.4635,4.449,1.269-1.9705,0.0644-3.0362-0.77827-4.449-1.269zm106.28-4.7192c2.0845-9.7556-8.3652-15.33-16.728-14.633-1.3905-8.3627-9.7556-6.2708-12.542,0-6.2757-16.029-9.0592-29.963-30.662-29.963-17.419,0-35.538,11.845-33.448,31.356-15.33-4.8778-29.269,3.4849-18.812,20.21,2.077,3.1205,4.2582,5.0736,6.6748,6.3377,0.67912-0.74356,3.9186-0.74605,3.0536,0.95426-0.24785,0.0347-0.46349,0.0347-0.68408,0.042,0.7857,0.2652,1.5962,0.47589,2.434,0.65434,0.1957-0.0571,0.45358-0.0792,0.79066-0.0571v0.21315c2.7462,0.49573,5.8098,0.66179,9.3318,0.91213l19.509-2.6645c-0.69647,2.7859,37.635,1.274,43.903,0.57255,8.3627-2.0894,24.392-3.4824,27.18-13.934" fill="#ded695"/>

  </g>

 </g>

</svg>

