<?xml version="1.0" encoding="UTF-8" standalone="no"?>
<!-- Created with Inkscape (http://www.inkscape.org/) -->
<svg id="svg3458" xmlns:rdf="http://www.w3.org/1999/02/22-rdf-syntax-ns#" xmlns="http://www.w3.org/2000/svg" height="1052.4" width="744.09" version="1.1" xmlns:cc="http://creativecommons.org/ns#" xmlns:dc="http://purl.org/dc/elements/1.1/">
 <metadata id="metadata3463">
  <rdf:RDF>
   <cc:Work rdf:about="">
    <dc:format>image/svg+xml</dc:format>
    <dc:type rdf:resource="http://purl.org/dc/dcmitype/StillImage"/>
    <dc:title/>
   </cc:Work>
  </rdf:RDF>
 </metadata>
 <g id="layer1" fill-rule="nonzero">
  <path id="path882" fill="#f8ce21" d="m276.27,252.54,108.48-15.848,78.736,0,12.246,223.07s29.75,77.238,68.231,75.801c38.492-1.4315,68.237,0.0203,68.237,0.0203l52.496,231.24-220.46,69.999-187.22,19.241h-33.234l-34.997-294.87s99.729-23.581,92.734-95.312c-7.0045-71.726-5.2521-213.34-5.2521-213.34"/>
  <path id="path884" fill="#fcf4c4" d="m292.02,624.68s6.9994,80.916,19.246,100.16c12.257,19.251,108.49,38.502,108.49,38.502s59.485-33.25,71.736-48.996c12.246-15.741-3.6118-116.68-3.6118-116.68l-98.088,27.014h-97.767"/>
  <path id="path886" fill="#bf935b" d="m270.76,613.74s105.24-0.32603,124.48-2.3433c19.246-2.0326,111.98-28.375,111.98-28.375v13.642l-108.48,32.032-127.99,4.814v-19.771"/>
  <path id="path888" fill="#bf935b" d="m206.98,563.11c-22.572-9.4446-47.442,3.3622-64.233,18.222-22.379,19.811-37.743,47.519-51.624,73.56-14.157,26.566-26.21,54.309-41.528,80.244-5.3285,9.0269-11.222,18.054-19.256,24.921-6.1741,5.2827-10.993,3.464-18.268,3.301-4.9159-0.11697-6.4441,5.6189-3.6933,8.925,12.817,15.435,33.545-4.7427,41.344-14.982,16.561-21.757,27.167-48.517,38.807-73.061,13.596-28.675,27.595-58.043,47.631-82.887,8.5531-10.621,18.563-20.153,30.57-26.744,12.603-6.9281,25.619-6.8007,39.546-6.3677,3.1992,0.0966,3.2297-4.0804,0.703-5.1298"/>
  <path id="path890" fill="#bf935b" d="m606.05,543.09c22.206,2.3739,62.684-10.978,75.806,14.411,7.356,14.238,3.1839,35.654,2.9342,50.983-0.26489,15.996,0.77942,33.117,9.5108,47.004,8.008,12.735,30.591,24.926,45.15,17.855,2.9801-1.4518,2.6082-5.8787,0-7.4375-8.1609-4.8344-18.517-3.2959-27.147-8.2831-7.8807-4.5593-11.905-13.041-14.203-21.462-4.8191-17.646-2.3077-37.045-2.7508-55.104-0.33622-13.576-1.9867-30.137-14.518-38.237-21.716-14.045-51.757-8.869-75.098-2.0733-1.3754,0.40223-0.97808,2.2109,0.31584,2.3433"/>
  <path id="path892" fill="#bf935b" d="m283.51,269.39c-15.4-61.466,31.513-117.8,91.955-123.81,23.336-2.3128,54.492-0.73356,67.941,21.691,12.909,21.538,4.6102,54.472,4.3453,78.175-0.097,9.0065,13.846,8.9912,13.968,0,0.37208-28.446,7.6056-61.609-8.2016-87.37-15.496-25.247-51.777-27.733-78.053-25.165-64.966,6.3626-123.42,72.047-95.939,137.58,1.0086,2.3688,4.6408,1.5537,3.9836-1.1003"/>
  <path id="path894" fill="#fcf4c4" d="m367.9,351.42,0.32603-0.14264c1.3652-0.6062,2.3077-2.4758,2.2465-3.9123-0.34152-7.7228-8.436-9.3886-14.773-9.8878-4.5593-0.3566-7.6514,5.4508-5.2572,9.1542,5.6749,8.7722,14.524,16.475,24.804,19.144,4.488,1.1615,7.9928-2.1192,8.4054-6.3983,0.50942-5.2266,3.1125-10.112,4.2842-15.211,0.97298-4.2587-3.0565-9.8623-7.8858-7.8858-5.1655,2.1141-9.3835,5.2623-13.892,8.5073-6.7804,4.8853-0.57055,16.118,6.6683,11.401,4.1365-2.6999,7.6107-6.1538,12.16-8.2016-3.1329-2.4096-6.2709-4.8191-9.409-7.2337-1.2837,6.4085-4.3555,12.043-5.1961,18.624,2.7967-2.1294,5.5934-4.2689,8.4003-6.4034-7.6566-2.1396-13.815-7.6871-18.787-13.714-1.4315,3.459-2.8578,6.923-4.2944,10.387,2.8476-0.11736,5.2012,0.20867,7.8298,1.3245-2.3535-0.99846,0.96789,0.71828,1.2073,0.75903,1.2073,0.19848,2.0173,0.18828,3.1635-0.31094"/>
  <path id="path896" fill="#fcf4c4" d="m412.65,368.24c2.7508-0.75903,4.7885-1.1615,7.5292-0.18869-0.37697-2.8884-0.74884-5.7717-1.1309-8.6601-4.8547,2.7305-10.367,4.3097-15.914,4.7631,1.9918,2.6082,3.9735,5.2215,5.9653,7.8298,0.96789-4.8904,1.9205-10.081,4.0193-14.63h-10.968c0.67753,1.4111,1.1003,2.7458,1.1666,4.3148,0.11736,2.7101,1.4824,4.2791,3.5812,5.787,1.4977,1.08,3.9021,0.92204,5.4202,0l0.5298-0.32603c1.844-1.1207,3.2246-3.2297,3.1278-5.461-0.16301-3.892-1.2073-7.2286-2.8578-10.728-1.9714-4.1518-9.0116-4.162-10.968,0-2.705,5.7055-4.0142,11.548-4.977,17.748-0.55527,3.5048,1.5741,8.3748,5.9602,7.8348,7.7483-0.95261,16.566-3.3112,21.65-9.6891,2.0122-2.5165,1.7728-7.1624-2.0835-7.9164-4.4064-0.85073-8.0946-0.23963-12.251,1.355-4.87,1.8696-3.0361,9.4242,2.2007,7.9673"/>
  <path id="path898" fill="#fcf4c4" d="m345.37,367.62c-4.4217-3.6474-9.1288-4.4778-14.722-3.5965-2.2262,0.3566-4.1059,2.6235-4.6663,4.6765-0.87111,3.1635,0.65205,5.6953,3.0718,7.5445,4.4625,3.4182,10.107,5.1553,15.104,7.6413,3.6627,1.8135,9.4242,0.55526,10.224-4.1568,1.2277-7.3051,0.27998-14.447-3.1074-21.064-1.5792-3.0769-6.0213-4.1416-8.9046-2.328-3.5099,2.2058-5.9908,5.517-7.2337,9.465-0.69281,2.2364,0.10188,4.7325,1.6811,6.3677,2.0988,2.165,5.3183,2.5573,7.9316,1.0239,2.0632-1.2022,2.8884-4.8446,4.1925-5.6138-2.975-0.7845-5.9398-1.5588-8.9097-2.3382,1.462,3.352,1.4416,7.2388,0.92714,10.784,3.4131-1.3907,6.816-2.7712,10.224-4.1619-5.1553-2.4045-10.372-4.437-15.374-7.1573v11.538c1.7626-0.79469,4.1467,0.004,6.0366-0.10188,3.9123-0.23923,7.1522-5.5221,3.5252-8.5226"/>
 </g>
</svg>
